<svg fill="none" xmlns="http://www.w3.org/2000/svg" viewBox="0 0 223 321">
<path d="M190.063 217.893C169.183 238.773 111.336 320.503 111.336 320.503C111.336 320.503 53.4892 238.773 32.6096 217.893C11.73 197.014 2.20002e-07 168.695 0 139.167C-2.20002e-07 109.638 11.73 81.3197 32.6096 60.4401C32.6096 60.4401 41.7529 83.5 69.5862 97.4167C69.5862 69.5833 76.5445 27.8333 111.141 0C139.17 27.8333 168.255 38.6466 190.049 60.4401C200.405 70.7662 208.618 83.0372 214.216 96.5478C219.814 110.058 222.687 124.542 222.67 139.167C222.689 153.79 219.818 168.273 214.223 181.784C208.627 195.295 200.416 207.566 190.063 217.893Z" fill="#42B983"/>
<path d="M147.434 214.237C137.829 223.842 111.218 261.44 111.218 261.44C111.218 261.44 84.6065 223.842 75.0013 214.237C65.3961 204.632 60 191.604 60 178.02C60 164.437 65.3961 151.409 75.0013 141.804C75.0013 141.804 79.2075 152.412 92.0115 158.814C92.0115 146.01 95.2126 126.804 111.128 114C124.022 126.804 137.402 131.778 147.428 141.804C152.192 146.554 155.97 152.199 158.545 158.415C161.121 164.63 162.442 171.293 162.434 178.02C162.443 184.748 161.122 191.41 158.548 197.626C155.974 203.841 152.197 209.486 147.434 214.237Z" fill="#273849"/>
</svg>