<svg xmlns="http://www.w3.org/2000/svg" fill="none" viewBox="0 0 512 512">
  <path fill="#3eaf7c" stroke="#35495e" stroke-linecap="round" stroke-linejoin="round" stroke-width="6" d="M364.61 390.21c-59.99 59.99-157.24 59.99-217.22 0-30-29.99-45-69.3-45-108.61 0-39.3 15-78.62 45-108.61 0 57.41 6.21 108.61 83.01 134.21 0-51.2 25.6-204.8 64-230.4 25.6 51.2 40.22 66.2 70.2 96.19 30 30 45 69.3 45 108.61s-15 78.62-44.99 108.61z"/>
  <path fill="#fff" d="M201.7 387.1a76.8 76.8 0 10108.6-108.6c-15-15-22.3-22.5-35.1-48.1-19.2 12.8-32 89.6-32 115.2-41.5 0-64-12.8-64-12.8 0 19.66 7.5 39.3 22.5 54.3z"/>
</svg>